<svg width="216" height="195" viewBox="0 0 216 195" xmlns="http://www.w3.org/2000/svg">
    <title>darth-vader</title>
    <g fill="none" fill-rule="evenodd">
        <path d="M204 177c1.944-1.506 6.702-2.976 8.496-4.572L180 95.25S151.146 9 115.548 9h-15.096C64.854 9 36 95.25 36 95.25L3.504 172.428c1.794 1.596 6.552 3.066 8.496 4.572h192z"
              fill="#323232"/>
        <path d="M48 117l24 42 30-42H48zM144 159l24-42h-54l30 42z" fill="#505050"/>
        <path d="M54 103.5c0-4.122 2.22-10.158 4.932-13.404 0 0 7.602-9.096 23.07-9.096 7.842 0 13.314 3.378 13.314 3.378C98.994 86.646 102 91.878 102 96v11.25c0 2.064-3.6 3.75-7.998 3.75H61.998C57.6 111 54 107.622 54 103.5M154 111h-31.998c-4.404 0-8.004-1.686-8.004-3.75V96c0-4.128 3.012-9.354 6.684-11.622 0 0 5.472-3.378 13.32-3.378 15.462 0 23.064 9.096 23.064 9.096 2.712 3.246 4.932 9.282 4.932 13.404 0 4.128-3.6 7.5-7.998 7.5"
              fill="#000"/>
        <path d="M180 81V67.452c0-34.854-27.678-63.168-62.244-64.338C116.106 1.218 113.706 0 111 0h-6c-2.706 0-5.106 1.218-6.756 3.114C63.678 4.284 36 32.598 36 67.452V81L0 177h12l31.668-77.094c8.13-20.316 19.392-28.98 37.674-28.98C93.84 70.926 101.574 80.688 102 81h12c.426-.312 8.16-10.074 20.658-10.074 18.282 0 29.544 8.664 37.662 28.95L204 177h12l-36-96z"
              fill="#000"/>
        <path d="M53.92 63c-1.55 0-2.81-1.254-2.81-2.808 0-23.202 18.877-42.078 42.085-42.078 1.548 0 2.802 1.254 2.802 2.808 0 1.548-1.254 2.802-2.802 2.802-20.112 0-36.468 16.362-36.468 36.468 0 1.554-1.26 2.808-2.808 2.808"
              fill="#1A1A1A"/>
        <path d="M108 117c-3.312 0-6 2.682-6 6v6h12v-6c0-3.318-2.688-6-6-6m45 60c-3.312 0-6 2.688-6 6s2.688 6 6 6 6-2.688 6-6-2.688-6-6-6m-90 0c-3.312 0-6 2.688-6 6s2.688 6 6 6 6-2.688 6-6-2.688-6-6-6"
              fill="#FFF"/>
        <path d="M158.745 172.53l9.252-55.53-24 42-24-33.6V123c0-6.617-5.376-12-12-12-6.618 0-12 5.383-12 12v2.4l-24 33.6-24-42 9.258 55.53c-3.708 2.047-6.258 5.947-6.258 10.47 0 6.62 5.382 12 12 12 4.428 0 8.25-2.43 10.332-6h69.34c2.077 3.57 5.905 6 10.327 6 6.624 0 12-5.38 12-12 0-4.523-2.544-8.423-6.252-10.47"
              fill="#000"/>
        <path d="M84 177h12v-31.542l-12 16.458V177zM120 145.457V177h12v-15.085l-12-16.458zM102 177h12v-36h-12v36z"
              fill="#323232"/>
        <path d="M108 117c-3.312 0-6 2.682-6 6v6h12v-6c0-3.318-2.688-6-6-6m45 60c-3.312 0-6 2.688-6 6s2.688 6 6 6 6-2.688 6-6-2.688-6-6-6m-90 0c-3.312 0-6 2.688-6 6s2.688 6 6 6 6-2.688 6-6-2.688-6-6-6"
              fill="#FFF"/>
    </g>
</svg>