<svg width="216" height="204" viewBox="0 0 216 204" xmlns="http://www.w3.org/2000/svg"
     xmlns:xlink="http://www.w3.org/1999/xlink">
    <title>obiwan-kenobi</title>
    <defs>
        <path id="a" d="M0 0h216v204H0"/>
    </defs>
    <g fill="none" fill-rule="evenodd">
        <path d="M48 204h120v-78H48v78z" fill="#503C1D"/>
        <path d="M108 18c-33.138 0-60 23.346-60 52.14V156l42 30h36l42-30V70.14C168 41.346 141.138 18 108 18"
              fill="#F0B496"/>
        <path d="M48 120c-6.6 0-12-5.4-12-12V90c0-6.6 5.4-12 12-12s12 5.4 12 12v18c0 6.6-5.4 12-12 12M168 120c-6.6 0-12-5.4-12-12V90c0-6.6 5.4-12 12-12s12 5.4 12 12v18c0 6.6-5.4 12-12 12"
              fill="#F0B496"/>
        <path d="M84 89.706c-3.318 0-6 2.682-6 6s2.682 6 6 6 6-2.682 6-6-2.682-6-6-6M132 89.706c-3.318 0-6 2.682-6 6s2.682 6 6 6 6-2.682 6-6-2.682-6-6-6"
              fill="#323232"/>
        <path d="M102 117V92.712c0-1.656 1.343-3 3-3 1.655 0 3 1.344 3 3V117c0 1.656-1.345 3-3 3-1.657 0-3-1.344-3-3"
              fill="#E99977"/>
        <path d="M132 168H84l6-30h36l6 30zm36-102l-12 90h-6l-18-24H84l-18 24h-6L48 66l-5.172 82.71c-.516 8.268 3.27 16.218 10.008 21.03l24.906 17.79c4.068 2.91 8.946 4.47 13.95 4.47h32.616c5.004 0 9.882-1.56 13.95-4.47l24.906-17.79c6.738-4.812 10.524-12.762 10.008-21.03L168 66z"
              fill="#ECECEC"/>
        <g>
            <mask id="b" fill="#fff">
                <use xlink:href="#a"/>
            </mask>
            <path d="M6.454 204h62.52c-20.58-30.078-19.512-83.778-19.512-84.39 0-33.03 26.208-59.808 58.536-59.808 32.334 0 58.542 26.778 58.542 59.808 0 .612 1.062 54.312-19.512 84.39h62.52c5.544 0 8.406-6.726 4.95-11.298-31.236-41.304-28.446-110.394-28.446-110.394C186.052 38.544 149.5 0 107.998 0 66.502 0 29.944 38.544 29.944 82.308c0 0 2.79 69.09-28.44 110.394C-1.952 197.274.91 204 6.454 204"
                  fill="#8C5A3C" mask="url(#b)"/>
        </g>
    </g>
</svg>