<?xml version="1.0" encoding="UTF-8" standalone="no"?>
<svg width="35px" height="37px" viewBox="0 0 35 37" version="1.1" xmlns="http://www.w3.org/2000/svg" xmlns:xlink="http://www.w3.org/1999/xlink">
    <!-- Generator: Sketch 3.8.3 (29802) - http://www.bohemiancoding.com/sketch -->
    <title>arrow-down-3</title>
    <desc>Created with Sketch.</desc>
    <defs></defs>
    <g id="Page-1" stroke="none" stroke-width="1" fill="none" fill-rule="evenodd">
        <g id="Artboard-1" transform="translate(-640.000000, -230.000000)" fill="#FFFFFF">
            <g id="arrow-down-3" transform="translate(640.000000, 230.000000)">
                <path d="M17.7048937,37.0305785 C17.5097507,37.0305785 17.3134531,36.9565289 17.1633431,36.8072727 L1.65698314,21.42 C0.150109971,19.9019835 0.217082111,17.3704132 1.8082478,15.773719 C3.34167889,14.2406612 5.99285191,14.1677686 7.43968109,15.6244628 L13.856305,22.0355372 L13.856305,3.09735537 C13.8470674,2.3614876 14.1230389,1.6846281 14.6541972,1.14545455 C15.3574047,0.431570248 16.4982405,0.00578512397 17.7060484,0.00578512397 C18.8734421,0.00578512397 20.0015762,0.437355372 20.7209494,1.16165289 C21.2671188,1.70892562 21.5557918,2.39619835 21.5557918,3.14363636 L21.5557918,22.0320661 L27.9377749,15.3664463 C29.4377199,13.857686 32.0761913,13.9259504 33.6177053,15.4682645 C35.2100257,17.0661157 35.2608321,19.6150413 33.7331745,21.1480992 L18.2545271,36.8003306 C18.1032625,36.9530579 17.9069648,37.0305785 17.7083578,37.0305785 L17.7048937,37.0305785 Z M4.76195015,16.0722314 C4.07837243,16.0722314 3.3982588,16.3626446 2.89596774,16.8647934 C1.90408724,17.8609917 1.8371151,19.413719 2.74354839,20.3277686 L17.6991202,35.1689256 L32.6373717,20.0616529 C33.5692082,19.1267769 33.5160924,17.5566942 32.5253666,16.5593388 C31.5681268,15.6024793 29.9330828,15.542314 29.0347324,16.4447934 L21.3387097,24.4838017 C21.1204729,24.7117355 20.7844575,24.78 20.4969391,24.6654545 C20.2059567,24.548595 20.0154326,24.2639669 20.0154326,23.9492562 L20.0154326,3.14132231 C20.0154326,2.8 19.8907258,2.5107438 19.6320748,2.2492562 C18.74989,1.36528926 16.5617485,1.40809917 15.7488453,2.22958678 C15.5075147,2.47487603 15.3932001,2.75603306 15.3966642,3.08694215 L15.3966642,23.891405 C15.3966642,24.2026446 15.2084494,24.4849587 14.9220858,24.6041322 C14.6357221,24.7233058 14.3043255,24.6585124 14.0826246,24.4386777 L6.34965176,16.7132231 C5.93742669,16.2966942 5.37393695,16.0699174 4.76195015,16.0699174 L4.76195015,16.0722314 Z" id="Shape"></path>
            </g>
        </g>
    </g>
</svg>