<?xml version="1.0" encoding="UTF-8" standalone="no"?>
<svg width="78px" height="110px" viewBox="0 0 78 110" version="1.1" xmlns="http://www.w3.org/2000/svg" xmlns:xlink="http://www.w3.org/1999/xlink">
    <!-- Generator: Sketch 3.8.3 (29802) - http://www.bohemiancoding.com/sketch -->
    <title>Group 3</title>
    <desc>Created with Sketch.</desc>
    <defs></defs>
    <g id="Page-1" stroke="none" stroke-width="1" fill="none" fill-rule="evenodd">
        <g id="Artboard-1" transform="translate(-619.000000, -296.000000)" fill="#FFFFFF">
            <g id="Group-3" transform="translate(619.000000, 296.000000)">
                <g id="Group-4">
                    <g id="Group-Copy" transform="translate(19.279318, 74.800000)">
                        <path d="M5.95116418,3.0294 C6.84406397,3.0294 7.83837953,3.2208 8.3256162,5.511 C8.49978678,6.3052 9.29347548,6.7958 10.0717313,6.6396 C10.86542,6.4702 11.3702942,5.6914 11.2027377,4.8972 C10.3539318,0.9284 7.87806397,0.0946 5.95336887,0.0946 C0.338021322,0.0946 0.338021322,6.5714 0.338021322,9.3346 C0.338021322,12.0978 0.338021322,18.5746 5.95336887,18.5746 C7.87806397,18.5746 10.3539318,17.7408 11.2027377,13.772 C11.3724989,12.9778 10.86542,12.199 10.0717313,12.0296 C9.29347548,11.8778 8.49978678,12.3662 8.3256162,13.1582 C7.83837953,15.4462 6.84406397,15.6398 5.95116418,15.6398 C4.59527932,15.6398 3.2768742,15.1536 3.2768742,9.3324 C3.2768742,3.5112 4.59748401,3.025 5.95116418,3.025 L5.95116418,3.0294 Z" id="Shape"></path>
                        <path d="M19.7525288,9.383 L19.772371,7.8694 C18.345936,7.4976 17.397919,6.9454 17.397919,5.4494 C17.397919,4.114 18.374597,3.0294 19.5761535,3.0294 C20.7225928,3.0294 21.6772239,4.0216 21.7521834,5.2888 C21.7984819,6.0962 22.510597,6.7254 23.3042857,6.6682 C24.1156119,6.6176 24.7329254,5.9268 24.6866269,5.1194 C24.5190704,2.3034 22.2768998,0.1012 19.5783582,0.1012 C16.7563539,0.1012 14.4612708,2.5014 14.4612708,5.4538 C14.4612708,7.3106 15.2549595,9.7284 19.0315949,10.714 L19.3843454,10.8086 C20.8041663,11.1782 21.7543881,11.7304 21.7543881,13.2286 C21.7543881,14.5596 20.77771,15.6464 19.5761535,15.6464 C18.4297143,15.6464 17.4750832,14.6542 17.4001237,13.387 C17.3538252,12.5796 16.6681663,11.924 15.8480213,12.0076 C15.0366951,12.0582 14.4193817,12.749 14.4656802,13.5564 C14.6332367,16.3724 16.8754072,18.5746 19.5739488,18.5746 C22.3959531,18.5746 24.6910362,16.1744 24.6910362,13.2242 C24.6910362,11.3696 23.8973475,8.9496 20.1229168,7.9684 L19.7525288,9.383 Z" id="Shape"></path>
                        <path d="M33.2452367,7.9662 L32.8748486,9.383 L32.8946908,7.8694 C31.4682559,7.4976 30.5202388,6.9454 30.5202388,5.4494 C30.5202388,4.114 31.4969168,3.0294 32.6984733,3.0294 C33.8449126,3.0294 34.7995437,4.0216 34.8745032,5.2888 C34.9252111,6.0962 35.6483497,6.7254 36.4266055,6.6682 C37.2379318,6.6176 37.8552452,5.9268 37.8089467,5.1194 C37.6413902,2.3034 35.3992196,0.1012 32.700678,0.1012 C29.8786738,0.1012 27.5835906,2.5014 27.5835906,5.4538 C27.5835906,7.3106 28.3772793,9.7284 32.1539147,10.714 L32.5066652,10.8086 C33.9264861,11.1782 34.8767079,11.7304 34.8767079,13.2286 C34.8767079,14.5596 33.9000299,15.6464 32.6984733,15.6464 C31.5520341,15.6464 30.597403,14.6542 30.5224435,13.387 C30.4717356,12.5796 29.805919,11.924 28.9703412,12.0076 C28.1590149,12.0582 27.5417015,12.749 27.588,13.5564 C27.7555565,16.3724 29.9977271,18.5746 32.6962687,18.5746 C35.5182729,18.5746 37.8133561,16.1744 37.8133561,13.2242 C37.8133561,11.3696 37.0196674,8.9496 33.2452367,7.9684 L33.2452367,7.9662 Z" id="Shape"></path>
                    </g>
                    <path d="M77.0108172,28.911909 C76.9153277,28.6266054 76.7677531,28.3859879 76.5941359,28.1694322 L53.4538523,0.673728946 C53.2773415,0.467485391 53.0632136,0.299053155 52.8288303,0.182181807 C52.594447,0.0618730665 52.3398084,-7.10542736e-14 52.0851698,-7.10542736e-14 L1.9300449,-7.10542736e-14 C0.865192543,-7.10542736e-14 0,1.02778038 0,2.29274085 L0,107.707259 C0,108.97222 0.865192543,110 1.9300449,110 L75.2341342,110 C76.2989866,110 77.1641791,108.97222 77.1641791,107.707259 L77.1641791,29.7918815 C77.1641791,29.489391 77.1092003,29.1869004 77.0137108,28.911909 L77.0108172,28.911909 Z M54.0123211,7.82350552 L70.5754051,27.4991407 L54.0123211,27.4991407 L54.0123211,7.82350552 L54.0123211,7.82350552 Z M3.85430257,105.414518 L3.85430257,4.5854817 L50.1522313,4.5854817 L50.1522313,29.7918815 C50.1522313,31.056842 51.0174238,32.0846224 52.0822762,32.0846224 L73.3011957,32.0846224 L73.3011957,105.414518 L3.85430257,105.414518 L3.85430257,105.414518 Z" id="Shape-Copy"></path>
                </g>
            </g>
        </g>
    </g>
</svg>