<?xml version="1.0" encoding="UTF-8" standalone="no"?>
<svg width="77px" height="110px" viewBox="0 0 77 110" version="1.1" xmlns="http://www.w3.org/2000/svg" xmlns:xlink="http://www.w3.org/1999/xlink">
    <!-- Generator: Sketch 3.8.3 (29802) - http://www.bohemiancoding.com/sketch -->
    <title>Group 2</title>
    <desc>Created with Sketch.</desc>
    <defs></defs>
    <g id="Page-1" stroke="none" stroke-width="1" fill="none" fill-rule="evenodd">
        <g id="Artboard-1" transform="translate(-619.000000, -92.000000)" fill="#FFFFFF">
            <g id="Group-2" transform="translate(619.000000, 92.000000)">
                <g id="Group" transform="translate(13.200000, 74.800000)">
                    <path d="M18.5768,3.0294 C19.4678,3.0294 20.46,3.2208 20.9462,5.511 C21.12,6.3052 21.912,6.7958 22.6886,6.6396 C23.4806,6.4702 23.9844,5.6914 23.8172,4.8972 C22.9702,0.9284 20.4996,0.0946 18.579,0.0946 C12.9756,0.0946 12.9756,6.5714 12.9756,9.3346 C12.9756,12.0978 12.9756,18.5746 18.579,18.5746 C20.4996,18.5746 22.9702,17.7408 23.8172,13.772 C23.9866,12.9778 23.4806,12.199 22.6886,12.0296 C21.912,11.8778 21.12,12.3662 20.9462,13.1582 C20.46,15.4462 19.4678,15.6398 18.5768,15.6398 C17.2238,15.6398 15.9082,15.1536 15.9082,9.3324 C15.9082,3.5112 17.226,3.025 18.5768,3.025 L18.5768,3.0294 Z" id="Shape"></path>
                    <path d="M32.3488,9.383 L32.3686,7.8694 C30.9452,7.4976 29.9992,6.9454 29.9992,5.4494 C29.9992,4.114 30.9738,3.0294 32.1728,3.0294 C33.3168,3.0294 34.2694,4.0216 34.3442,5.2888 C34.3904,6.0962 35.101,6.7254 35.893,6.6682 C36.7026,6.6176 37.3186,5.9268 37.2724,5.1194 C37.1052,2.3034 34.8678,0.1012 32.175,0.1012 C29.359,0.1012 27.0688,2.5014 27.0688,5.4538 C27.0688,7.3106 27.8608,9.7284 31.6294,10.714 L31.9814,10.8086 C33.3982,11.1782 34.3464,11.7304 34.3464,13.2286 C34.3464,14.5596 33.3718,15.6464 32.1728,15.6464 C31.0288,15.6464 30.0762,14.6542 30.0014,13.387 C29.9552,12.5796 29.271,11.924 28.4526,12.0076 C27.643,12.0582 27.027,12.749 27.0732,13.5564 C27.2404,16.3724 29.4778,18.5746 32.1706,18.5746 C34.9866,18.5746 37.2768,16.1744 37.2768,13.2242 C37.2768,11.3696 36.4848,8.9496 32.7184,7.9684 L32.3488,9.383 Z" id="Shape"></path>
                    <path d="M45.8128,7.9662 L45.4432,9.383 L45.463,7.8694 C44.0396,7.4976 43.0936,6.9454 43.0936,5.4494 C43.0936,4.114 44.0682,3.0294 45.2672,3.0294 C46.4112,3.0294 47.3638,4.0216 47.4386,5.2888 C47.4892,6.0962 48.2108,6.7254 48.9874,6.6682 C49.797,6.6176 50.413,5.9268 50.3668,5.1194 C50.1996,2.3034 47.9622,0.1012 45.2694,0.1012 C42.4534,0.1012 40.1632,2.5014 40.1632,5.4538 C40.1632,7.3106 40.9552,9.7284 44.7238,10.714 L45.0758,10.8086 C46.4926,11.1782 47.4408,11.7304 47.4408,13.2286 C47.4408,14.5596 46.4662,15.6464 45.2672,15.6464 C44.1232,15.6464 43.1706,14.6542 43.0958,13.387 C43.0452,12.5796 42.3808,11.924 41.547,12.0076 C40.7374,12.0582 40.1214,12.749 40.1676,13.5564 C40.3348,16.3724 42.5722,18.5746 45.265,18.5746 C48.081,18.5746 50.3712,16.1744 50.3712,13.2242 C50.3712,11.3696 49.5792,8.9496 45.8128,7.9684 L45.8128,7.9662 Z" id="Shape"></path>
                    <path d="M5.6496,7.865 L5.28,9.2818 L5.2998,7.7682 C3.8764,7.3964 2.9304,6.8442 2.9304,5.3482 C2.9304,4.0128 3.905,2.9282 5.104,2.9282 C6.248,2.9282 7.2006,3.9204 7.2754,5.1876 C7.326,5.995 8.0476,6.6242 8.8242,6.567 C9.6338,6.5164 10.2498,5.8256 10.2036,5.0182 C10.0364,2.2022 7.799,7.10542736e-15 5.1062,7.10542736e-15 C2.2902,7.10542736e-15 -7.99360578e-15,2.4002 -7.99360578e-15,5.3526 C-7.99360578e-15,7.2094 0.792,9.6272 4.5606,10.6128 L4.9126,10.7074 C6.3294,11.077 7.2776,11.6292 7.2776,13.1274 C7.2776,14.4584 6.303,15.5452 5.104,15.5452 C3.96,15.5452 3.0074,14.553 2.9326,13.2858 C2.882,12.4784 2.2176,11.8228 1.3838,11.9064 C0.5742,11.957 -0.0418,12.6478 0.0044,13.4552 C0.1716,16.2712 2.409,18.4734 5.1018,18.4734 C7.9178,18.4734 10.208,16.0732 10.208,13.123 C10.208,11.2684 9.416,8.8484 5.6496,7.8672 L5.6496,7.865 Z" id="Shape-Copy-2"></path>
                </g>
                <path d="M45.5488,59.983 L45.5686,58.4694 C44.1452,58.0976 43.1992,57.5454 43.1992,56.0494 C43.1992,54.714 44.1738,53.6294 45.3728,53.6294 C46.5168,53.6294 47.4694,54.6216 47.5442,55.8888 C47.5904,56.6962 48.301,57.3254 49.093,57.2682 C49.9026,57.2176 50.5186,56.5268 50.4724,55.7194 C50.3052,52.9034 48.0678,50.7012 45.375,50.7012 C42.559,50.7012 40.2688,53.1014 40.2688,56.0538 C40.2688,57.9106 41.0608,60.3284 44.8294,61.314 L45.1814,61.4086 C46.5982,61.7782 47.5464,62.3304 47.5464,63.8286 C47.5464,65.1596 46.5718,66.2464 45.3728,66.2464 C44.2288,66.2464 43.2762,65.2542 43.2014,63.987 C43.1552,63.1796 42.471,62.524 41.6526,62.6076 C40.843,62.6582 40.227,63.349 40.2732,64.1564 C40.4404,66.9724 42.6778,69.1746 45.3706,69.1746 C48.1866,69.1746 50.4768,66.7744 50.4768,63.8242 C50.4768,61.9696 49.6848,59.5496 45.9184,58.5684 L45.5488,59.983 Z" id="Shape"></path>
                <path d="M59.0128,58.5662 L58.6432,59.983 L58.663,58.4694 C57.2396,58.0976 56.2936,57.5454 56.2936,56.0494 C56.2936,54.714 57.2682,53.6294 58.4672,53.6294 C59.6112,53.6294 60.5638,54.6216 60.6386,55.8888 C60.6892,56.6962 61.4108,57.3254 62.1874,57.2682 C62.997,57.2176 63.613,56.5268 63.5668,55.7194 C63.3996,52.9034 61.1622,50.7012 58.4694,50.7012 C55.6534,50.7012 53.3632,53.1014 53.3632,56.0538 C53.3632,57.9106 54.1552,60.3284 57.9238,61.314 L58.2758,61.4086 C59.6926,61.7782 60.6408,62.3304 60.6408,63.8286 C60.6408,65.1596 59.6662,66.2464 58.4672,66.2464 C57.3232,66.2464 56.3706,65.2542 56.2958,63.987 C56.2452,63.1796 55.5808,62.524 54.747,62.6076 C53.9374,62.6582 53.3214,63.349 53.3676,64.1564 C53.5348,66.9724 55.7722,69.1746 58.465,69.1746 C61.281,69.1746 63.5712,66.7744 63.5712,63.8242 C63.5712,61.9696 62.7792,59.5496 59.0128,58.5684 L59.0128,58.5662 Z" id="Shape"></path>
                <path d="M18.8496,58.465 L18.48,59.8818 L18.4998,58.3682 C17.0764,57.9964 16.1304,57.4442 16.1304,55.9482 C16.1304,54.6128 17.105,53.5282 18.304,53.5282 C19.448,53.5282 20.4006,54.5204 20.4754,55.7876 C20.526,56.595 21.2476,57.2242 22.0242,57.167 C22.8338,57.1164 23.4498,56.4256 23.4036,55.6182 C23.2364,52.8022 20.999,50.6 18.3062,50.6 C15.4902,50.6 13.2,53.0002 13.2,55.9526 C13.2,57.8094 13.992,60.2272 17.7606,61.2128 L18.1126,61.3074 C19.5294,61.677 20.4776,62.2292 20.4776,63.7274 C20.4776,65.0584 19.503,66.1452 18.304,66.1452 C17.16,66.1452 16.2074,65.153 16.1326,63.8858 C16.082,63.0784 15.4176,62.4228 14.5838,62.5064 C13.7742,62.557 13.1582,63.2478 13.2044,64.0552 C13.3716,66.8712 15.609,69.0734 18.3018,69.0734 C21.1178,69.0734 23.408,66.6732 23.408,63.723 C23.408,61.8684 22.616,59.4484 18.8496,58.4672 L18.8496,58.465 Z" id="Shape-Copy-2"></path>
                <path d="M76.8469644,28.911909 C76.7516781,28.6266054 76.6044174,28.3859879 76.4311696,28.1694322 L53.3401207,0.673728946 C53.1639855,0.467485391 52.9503131,0.299053155 52.7164285,0.182181807 C52.482544,0.0618730665 52.2284471,-3.55271368e-14 51.9743503,-3.55271368e-14 L1.92593843,-3.55271368e-14 C0.863351708,-3.55271368e-14 0,1.02778038 0,2.29274085 L0,107.707259 C0,108.97222 0.863351708,110 1.92593843,110 L75.0740616,110 C76.1366483,110 77,108.97222 77,107.707259 L77,29.7918815 C77,29.489391 76.9451382,29.1869004 76.8498519,28.911909 L76.8469644,28.911909 Z M53.8974013,7.82350552 L70.4252447,27.4991407 L53.8974013,27.4991407 L53.8974013,7.82350552 L53.8974013,7.82350552 Z M3.84610192,105.414518 L3.84610192,4.5854817 L50.0455244,4.5854817 L50.0455244,29.7918815 C50.0455244,31.056842 50.9088761,32.0846224 51.9714629,32.0846224 L73.1452357,32.0846224 L73.1452357,105.414518 L3.84610192,105.414518 L3.84610192,105.414518 Z" id="Shape"></path>
                <path d="M33.5811725,51.5504 C33.2203725,50.2832 31.1171725,50.2832 30.7563725,51.5504 L26.4553725,66.7678 C26.2353725,67.5488 26.6907725,68.3584 27.4695725,68.5784 C28.2439725,68.7918 29.0601725,68.343 29.2801725,67.5642 L29.9577725,65.1618 L34.3753725,65.1618 L35.0529725,67.5642 C35.2377725,68.2132 35.8251725,68.6312 36.4631725,68.6312 C36.5951725,68.6312 36.7293725,68.6136 36.8613725,68.5762 C37.6423725,68.3562 38.0955725,67.5444 37.8755725,66.7656 L33.5789725,51.5504 L33.5811725,51.5504 Z M30.7893725,62.227 L32.1709725,57.343 L33.5525725,62.227 L30.7893725,62.227 L30.7893725,62.227 Z" id="Shape-Copy-3"></path>
            </g>
        </g>
    </g>
</svg>